<svg width="53" height="53" viewBox="0 0 53 53" fill="none" xmlns="http://www.w3.org/2000/svg">
<circle cx="26.5" cy="26.5" r="25.9" stroke="#9D8E7A" stroke-width="1.2"/>
<g clip-path="url(#clip0_5_1177)">
<path fill-rule="evenodd" clip-rule="evenodd" d="M36.5188 21.2045C36.664 20.7267 36.5188 20.375 35.8231 20.375H33.5263C32.9418 20.375 32.6722 20.6786 32.5261 21.0138C32.5261 21.0138 31.358 23.8102 29.7034 25.6267C29.1679 26.1535 28.9246 26.3206 28.6324 26.3206C28.4862 26.3206 28.2666 26.1535 28.2666 25.6749V21.2045C28.2666 20.6305 28.1056 20.375 27.6191 20.375H24.0071C23.6423 20.375 23.4226 20.641 23.4226 20.8939C23.4226 21.4372 24.2504 21.5632 24.3352 23.0928V26.416C24.3352 27.1449 24.2014 27.277 23.9091 27.277C23.1304 27.277 21.236 24.4674 20.1116 21.2526C19.8937 20.627 19.6732 20.375 19.0861 20.375H16.7875C16.1312 20.375 16 20.6786 16 21.0138C16 21.6105 16.7787 24.575 19.6269 28.4959C21.5256 31.1734 24.1987 32.625 26.6339 32.625C28.0942 32.625 28.2745 32.303 28.2745 31.7474V29.7235C28.2745 29.0786 28.4128 28.95 28.8756 28.95C29.2169 28.95 29.8005 29.118 31.1637 30.4086C32.7213 31.939 32.9776 32.625 33.8544 32.625H36.1513C36.8075 32.625 37.1365 32.303 36.9475 31.666C36.7393 31.0325 35.9955 30.1129 35.0094 29.0217C34.4739 28.4005 33.6706 27.7311 33.4265 27.396C33.0861 26.9664 33.1833 26.7747 33.4265 26.3924C33.4265 26.3924 36.2265 22.5196 36.5179 21.2045H36.5188Z" fill="#9D8E7A"/>
</g>
<defs>
<clipPath id="clip0_5_1177">
<rect width="21" height="21" fill="white" transform="translate(16 16)"/>
</clipPath>
</defs>
</svg>
