<svg width="153" height="95" viewBox="0 0 153 95" fill="none" xmlns="http://www.w3.org/2000/svg">
<path d="M33.4293 68.7332C31.5094 71.6223 27.5505 72.7011 24.312 72.6131H23.8516V75.812C23.8516 75.812 25.2735 75.7931 27.5481 75.5223C37.9869 72.3417 48.7828 73.4206 59.219 75.9385C51.3026 73.7806 43.7451 70.5434 35.6713 69.2749C34.8817 69.1092 34.135 68.9289 33.4293 68.7332Z" fill="#9D8E7A"/>
<path d="M105.267 72.0088C104.756 72.0222 104.25 72.0246 103.75 72.0186C102.879 72.007 102.022 71.9752 101.181 71.9245C99.9074 71.6712 98.6414 71.3669 97.3968 71.0186C94.6079 70.214 91.9028 69.1333 89.2889 67.8655C85.8364 66.196 82.6236 64.0738 79.642 61.6475L81.2793 58.7763C84.5483 61.2349 89.9421 64.8372 96.2224 67.2591H96.2214C96.2214 67.2591 106.565 71.6543 113.65 69.4639C113.65 69.4639 109.449 71.4648 105.267 72.0088H105.267ZM101.337 73.3242C84.1275 75.0457 64.809 75.3367 57.7885 57.7988C56.9787 57.061 56.2184 55.9185 55.5476 54.9924C52.1893 50.3612 50.642 45.2357 49.9312 41.4377L51.3079 32.2415C53.024 38.1257 56.7628 47.7596 64.2854 56.2083C64.7864 56.7713 65.377 57.7696 65.8511 58.1589C71.7304 73.298 87.4534 73.6654 101.933 72.7527H101.934L101.948 72.7517C102.301 72.7296 102.653 72.707 103.005 72.6832C103.785 72.6288 104.559 72.564 105.329 72.4857C104.041 72.7957 102.708 73.0762 101.337 73.3244V73.3242ZM99.2609 73.6685C93.5058 74.2992 87.4919 74.8714 81.6359 74.8873C77.8593 74.8318 74.1688 74.4985 70.6572 73.8035C68.473 73.3017 66.1624 72.6495 63.7393 71.804C62.08 71.1407 60.4855 70.3637 58.9854 69.4317C57.9138 68.766 56.8862 68.0274 55.909 67.2095C54.9317 66.3917 54.0051 65.4943 53.1336 64.5113C52.2621 63.5284 51.4467 62.4599 50.6928 61.299C49.9386 60.1387 49.2462 58.8863 48.6205 57.5353C48.2101 56.9326 47.9105 56.6141 47.6921 56.396L48.5723 50.5141C49.3342 51.4824 50.6383 53.0081 52.5483 54.8231C53.1856 55.4277 53.8895 56.0639 54.6637 56.7229C61.3425 75.7461 82.2762 75.4576 100.684 73.4405C100.215 73.521 99.7392 73.5962 99.2609 73.6685ZM90.0814 75.2944L90.0674 75.2951C90.0742 75.2944 90.0808 75.2937 90.0871 75.2937L90.0814 75.2944ZM61.2782 71.384C60.1137 70.8621 58.9903 70.2708 57.9146 69.6027C55.9286 68.2163 53.7745 66.7805 52.0767 64.6123C51.2149 63.6145 50.4126 62.5217 49.6761 61.3295C48.9403 60.1375 48.2702 58.8478 47.672 57.4522C48.3497 58.8275 49.0908 60.1076 49.8903 61.2983C50.689 62.4887 51.5464 63.5889 52.4559 64.6031C53.3654 65.6166 54.3274 66.5482 55.3366 67.404C56.3463 68.2598 57.4026 69.0349 58.5015 69.736C59.8269 70.5821 61.2165 71.3151 62.6549 71.9568C62.1908 71.7753 61.7302 71.5869 61.2782 71.384ZM79.4477 61.9885C80.1289 62.5877 80.8225 63.1733 81.5406 63.7301C83.8609 65.5377 86.3428 67.1508 88.9566 68.5195C90.9817 69.6051 93.1102 70.4892 95.288 71.2275C88.5274 70.0154 82.8762 67.4987 78.1589 64.2479L79.4477 61.9885ZM79.0868 43.6647L76.8146 47.6295L68.7109 33.5991C71.7621 37.0176 75.2397 40.4829 79.0868 43.6647ZM86.7287 49.2195C92.5584 52.8762 99.0151 55.6159 105.971 56.5989L107.525 65.3758C96.6396 66.2028 87.4166 60.3288 82.6023 56.4565L86.7287 49.2195ZM100.413 25.2228L105.801 55.641C99.0842 54.5951 92.8716 51.8834 87.2625 48.2836L100.413 25.2228ZM123.436 68.7353C120.022 67.4975 118.017 60.11 118.017 60.11L117.177 55.5339L116.956 54.4447C116.956 54.4447 116.764 53.2827 116.418 51.3955C114.339 40.0764 107.063 0.457092 107.063 0.457092H103.845L79.6781 42.6329C74.3965 38.1343 69.8412 33.0637 66.1331 28.3355C65.4854 27.5096 64.8549 26.6837 64.2408 25.8592L49.5699 0.457092H49.0928L48.8914 -0.000183105L48.7294 0.457092H46.3522C46.3522 0.457092 39.15 41.4457 35.9483 59.6626C35.7201 60.9641 35.5115 62.1481 35.3281 63.1756C33.6713 72.1629 51.9795 69.6517 58.7897 74.246C58.7897 74.246 58.5431 73.4802 58.7144 73.5181L58.8482 72.2717C58.8482 72.2717 82.8481 82.3303 108.203 76.4326C111.702 75.6191 114.016 74.6049 116.415 74.0743C126.311 71.9421 130.473 74.6049 130.473 74.6049V71.3676C130.473 71.3676 126.852 69.972 123.436 68.7353Z" fill="#9D8E7A"/>
<path d="M4.80402 94.0547L2.03099 89.3625L1.30142 94.2368H0L1.35038 86.5541H1.71495L4.80402 91.9028L7.86875 86.5541H8.23388L9.64489 94.2368H8.34346L7.47977 89.3625L4.80402 94.0547Z" fill="#9D8E7A"/>
<path d="M26.5971 94.0547L23.8241 89.3625L23.0944 94.2368H21.793L23.1428 86.5541H23.5079L26.5971 91.9028L29.6617 86.5541H30.0269L31.4379 94.2368H30.1364L29.2728 89.3625L26.5971 94.0547Z" fill="#9D8E7A"/>
<path d="M49.6055 88.7176L48.2923 91.6229H50.9558L49.6055 88.7176ZM45.75 94.2363L49.4231 86.5543H49.7878L53.5582 94.2363H52.184L51.4422 92.6683H47.8178L47.112 94.2363H45.75Z" fill="#9D8E7A"/>
<path d="M68.9154 87.6607H66.4219V86.5541H72.6369V87.6607H70.144V94.2368H68.9154V87.6607Z" fill="#9D8E7A"/>
<path d="M87.4336 86.5545H92.9552V87.6968H88.6134V89.8002H92.42V90.9545H88.6134V93.0939H93.0041V94.2363H87.4336V86.5545Z" fill="#9D8E7A"/>
<path d="M109.322 90.1524C109.772 90.2378 110.307 90.2861 110.745 90.2861C111.694 90.2861 112.594 90.0068 112.594 88.9125C112.594 88.0494 111.961 87.6723 110.855 87.6723H109.322V90.1524ZM108.094 86.5543H111.146C112.995 86.5543 113.834 87.4413 113.834 88.8276C113.834 89.6786 113.494 90.505 112.545 91.0276C113.105 92.037 113.725 93.2032 114.296 94.2368H112.958L111.414 91.3193C111.22 91.3315 111.037 91.3437 110.842 91.3437C110.343 91.3437 109.845 91.2948 109.322 91.2099V94.2368H108.094V86.5543Z" fill="#9D8E7A"/>
<path d="M129.287 86.5545H130.515V94.2363H129.287V86.5545Z" fill="#9D8E7A"/>
<path d="M149.047 88.7176L147.733 91.6229H150.397L149.047 88.7176ZM145.191 94.2363L148.865 86.5543H149.229L153 94.2363H151.625L150.883 92.6683H147.259L146.554 94.2363H145.191Z" fill="#9D8E7A"/>
</svg>
