<svg width="53" height="53" viewBox="0 0 53 53" fill="none" xmlns="http://www.w3.org/2000/svg">
<circle cx="26.5" cy="26.5" r="25.9" stroke="#9D8E7A" stroke-width="1.2"/>
<path d="M25.5002 23.7666C23.9949 23.7666 22.7665 24.995 22.7665 26.5003C22.7665 28.0056 23.9949 29.234 25.5002 29.234C27.0055 29.234 28.2339 28.0056 28.2339 26.5003C28.2339 24.995 27.0055 23.7666 25.5002 23.7666ZM33.6992 26.5003C33.6992 25.3683 33.7095 24.2465 33.6459 23.1165C33.5823 21.804 33.2829 20.6392 32.3232 19.6794C31.3614 18.7176 30.1986 18.4202 28.8861 18.3567C27.754 18.2931 26.6323 18.3033 25.5023 18.3033C24.3702 18.3033 23.2485 18.2931 22.1185 18.3567C20.806 18.4202 19.6411 18.7197 18.6814 19.6794C17.7196 20.6412 17.4222 21.804 17.3586 23.1165C17.295 24.2486 17.3053 25.3703 17.3053 26.5003C17.3053 27.6303 17.295 28.7541 17.3586 29.8841C17.4222 31.1966 17.7216 32.3615 18.6814 33.3212C19.6432 34.283 20.806 34.5804 22.1185 34.644C23.2505 34.7075 24.3723 34.6973 25.5023 34.6973C26.6343 34.6973 27.7561 34.7075 28.8861 34.644C30.1986 34.5804 31.3634 34.281 32.3232 33.3212C33.285 32.3594 33.5823 31.1966 33.6459 29.8841C33.7115 28.7541 33.6992 27.6323 33.6992 26.5003ZM25.5002 30.7065C23.1726 30.7065 21.2941 28.828 21.2941 26.5003C21.2941 24.1727 23.1726 22.2942 25.5002 22.2942C27.8279 22.2942 29.7064 24.1727 29.7064 26.5003C29.7064 28.828 27.8279 30.7065 25.5002 30.7065ZM29.8786 23.1042C29.3352 23.1042 28.8963 22.6654 28.8963 22.1219C28.8963 21.5784 29.3352 21.1396 29.8786 21.1396C30.4221 21.1396 30.861 21.5784 30.861 22.1219C30.8611 22.2509 30.8358 22.3788 30.7865 22.498C30.7372 22.6173 30.6649 22.7256 30.5736 22.8169C30.4824 22.9081 30.374 22.9805 30.2548 23.0298C30.1355 23.0791 30.0077 23.1044 29.8786 23.1042Z" fill="#9D8E7A"/>
</svg>
