<svg width="53" height="53" viewBox="0 0 53 53" fill="none" xmlns="http://www.w3.org/2000/svg">
<circle cx="26.5" cy="26.5" r="25.9" stroke="#9D8E7A" stroke-width="1.2"/>
<path d="M36.2232 22.3615C36.1137 21.9534 35.8988 21.5812 35.6002 21.2822C35.3016 20.9832 34.9297 20.7679 34.5217 20.6578C33.0199 20.2539 27 20.2539 27 20.2539C27 20.2539 20.9801 20.2539 19.4783 20.6557C19.0702 20.7654 18.6981 20.9806 18.3994 21.2797C18.1007 21.5787 17.886 21.9511 17.7768 22.3594C17.375 23.8633 17.375 27 17.375 27C17.375 27 17.375 30.1367 17.7768 31.6385C17.998 32.4678 18.6512 33.1209 19.4783 33.3422C20.9801 33.7461 27 33.7461 27 33.7461C27 33.7461 33.0199 33.7461 34.5217 33.3422C35.351 33.1209 36.002 32.4678 36.2232 31.6385C36.625 30.1367 36.625 27 36.625 27C36.625 27 36.625 23.8633 36.2232 22.3615ZM25.0879 29.8789V24.1211L30.0723 26.9785L25.0879 29.8789Z" fill="#9D8E7A"/>
</svg>
