<svg width="93" height="68" viewBox="0 0 93 68" fill="none" xmlns="http://www.w3.org/2000/svg">
<path d="M8.31919 59.702C6.65162 62.2114 3.21289 63.1485 0.399959 63.072H0V65.8506C0 65.8506 1.23512 65.8342 3.21084 65.599C12.2779 62.8363 21.6553 63.7735 30.7202 65.9604C23.844 64.0862 17.2795 61.2742 10.2667 60.1725C9.58082 60.0286 8.9322 59.8719 8.31919 59.702Z" fill="#9D8E7A"/>
<path d="M70.7174 62.5471C70.2738 62.5587 69.8345 62.5608 69.3999 62.5556C68.6429 62.5455 67.8991 62.5179 67.1682 62.4739C66.0622 62.2539 64.9626 61.9895 63.8815 61.687C61.459 60.9881 59.1094 60.0494 56.8389 58.9482C53.8401 57.4981 51.0494 55.6547 48.4596 53.5473L49.8818 51.0533C52.7213 53.1888 57.4063 56.3178 62.8614 58.4215H62.8605C62.8605 58.4215 71.8454 62.2392 77.9986 60.3366C77.9986 60.3366 74.3501 62.0745 70.7175 62.5471H70.7174ZM67.3038 63.6897C52.3557 65.1849 35.5756 65.4377 29.4776 50.2042C28.7742 49.5634 28.1139 48.571 27.5312 47.7666C24.6142 43.744 23.2702 39.2919 22.6528 35.993L23.8486 28.0052C25.3392 33.1162 28.5868 41.4842 35.1208 48.8228C35.556 49.3118 36.0691 50.1789 36.4808 50.5171C41.5876 63.6669 55.2446 63.986 67.8216 63.1933H67.8222L67.8348 63.1923C68.1409 63.1732 68.4474 63.1535 68.7523 63.1329C69.4301 63.0857 70.1022 63.0294 70.7716 62.9613C69.6523 63.2306 68.4948 63.4743 67.3038 63.6898V63.6897ZM65.5006 63.9887C60.5017 64.5366 55.278 65.0336 50.1915 65.0474C46.9112 64.9991 43.7056 64.7096 40.6554 64.1059C38.7583 63.6701 36.7512 63.1036 34.6465 62.3692C33.2053 61.7931 31.8203 61.1182 30.5173 60.3086C29.5865 59.7304 28.6939 59.0888 27.8451 58.3784C26.9962 57.668 26.1914 56.8886 25.4344 56.0347C24.6774 55.181 23.9692 54.2529 23.3143 53.2446C22.6592 52.2367 22.0578 51.1488 21.5143 49.9754C21.1579 49.4519 20.8976 49.1752 20.708 48.9858L21.4725 43.8767C22.1343 44.7178 23.267 46.0431 24.926 47.6196C25.4796 48.1447 26.091 48.6974 26.7635 49.2697C32.5647 65.7933 50.7477 65.5427 66.737 63.7906C66.3294 63.8606 65.9161 63.9259 65.5006 63.9887ZM57.5273 65.4009L57.5152 65.4016C57.521 65.401 57.5267 65.4004 57.5322 65.4004L57.5273 65.4009ZM32.5088 62.0044C31.4973 61.551 30.5215 61.0375 29.5872 60.4571C27.8621 59.2529 25.9911 58.0058 24.5164 56.1225C23.7679 55.2558 23.071 54.3066 22.4312 53.2711C21.7921 52.2357 21.21 51.1155 20.6905 49.9032C21.2791 51.0978 21.9228 52.2097 22.6173 53.244C23.311 54.2779 24.0557 55.2336 24.8458 56.1145C25.6357 56.9948 26.4713 57.804 27.3479 58.5473C28.2249 59.2907 29.1424 59.964 30.097 60.5729C31.2482 61.3079 32.4552 61.9445 33.7046 62.5019C33.3015 62.3443 32.9014 62.1806 32.5088 62.0044ZM48.2908 53.8435C48.8825 54.3639 49.485 54.8725 50.1087 55.3562C52.1242 56.9263 54.28 58.3274 56.5503 59.5163C58.3093 60.4593 60.1581 61.2271 62.0498 61.8684C56.1775 60.8156 51.2688 58.6296 47.1714 55.806L48.2908 53.8435ZM47.9774 37.9274L46.0038 41.3712L38.9649 29.1844C41.6152 32.1537 44.6358 35.1637 47.9774 37.9274ZM54.6152 42.7523C59.6788 45.9285 65.2871 48.3082 71.3289 49.1621L72.6793 56.7856C63.2238 57.504 55.2127 52.4019 51.0309 49.0383L54.6152 42.7523ZM66.5009 21.9087L71.1816 48.33C65.3472 47.4215 59.9509 45.0662 55.0788 41.9394L66.5009 21.9087ZM86.4992 59.7037C83.5335 58.6286 81.7926 52.2118 81.7926 52.2118L81.0626 48.2369L80.8704 47.2908C80.8704 47.2908 80.7035 46.2816 80.403 44.6423C78.5972 34.8106 72.2776 0.397209 72.2776 0.397209H69.4823L48.491 37.0311C43.9034 33.1237 39.9467 28.7194 36.7258 24.6124C36.1632 23.8951 35.6155 23.1776 35.0821 22.4615L22.339 0.397209H21.9246L21.7497 1.52588e-05L21.6089 0.397209H19.5441C19.5441 0.397209 13.2882 36 10.5072 51.8232C10.3091 52.9537 10.1279 53.9821 9.96858 54.8746C8.52941 62.6809 24.432 60.4997 30.3473 64.4904C30.3473 64.4904 30.1331 63.8251 30.2819 63.858L30.3981 62.7755C30.3981 62.7755 51.2444 71.5124 73.2674 66.3896C76.3066 65.683 78.3173 64.802 80.4008 64.3412C88.9966 62.4892 92.6117 64.802 92.6117 64.802V61.9901C92.6117 61.9901 89.4659 60.7779 86.4992 59.7037Z" fill="#9D8E7A"/>
</svg>
